<svg width="55" height="30" viewBox="0 0 55 30" fill="none" xmlns="http://www.w3.org/2000/svg">
<path d="M49.021 17.049H52.2468V29.914H49.021V17.049ZM43.6687 16.0342H55V18.4615H40.9915L43.6687 16.0342Z" fill="white"/>
<path d="M37.0142 15.6602V28.4239L35.5445 26.9923H46.2908V29.8554H33.7693L33.7693 15.6602H37.0142Z" fill="white"/>
<path d="M19.2179 26.9019V24.2678H29.1434V26.9019H19.2179ZM26.3375 15.6021L33.0373 29.9177H29.5824L23.7225 16.9191H24.7914L18.9316 29.9177H15.4767L22.1764 15.6021H26.3375Z" fill="white"/>
<path d="M0 15.6021H3.24488V29.9177H0V15.6021ZM11.4525 15.6021H14.6974V29.9177H11.4525V15.6021ZM1.77514 21.252H12.8841V24.096H1.77514V21.252Z" fill="white"/>
<path d="M42.6106 6.64229H48.1269C48.8522 6.64229 49.4248 6.47686 49.8448 6.14601C50.2774 5.80244 50.4937 5.33161 50.4937 4.73353C50.4937 4.13546 50.2774 3.67099 49.8448 3.34014C49.4248 3.00929 48.8522 2.84387 48.1269 2.84387H42.1334L43.6031 1.18325V15.4112L40.3582 18.2129L40.3582 0.286133H48.5086C49.5521 0.286133 50.4683 0.477009 51.2572 0.85876C52.0462 1.22779 52.6634 1.74315 53.1087 2.40485C53.5541 3.06655 53.7768 3.84278 53.7768 4.73353C53.7768 5.61156 53.5541 6.38143 53.1087 7.04313C52.6634 7.70483 52.0462 8.22656 51.2572 8.60831C50.4683 8.97733 49.5521 9.16185 48.5086 9.16185H42.6106V6.64229ZM45.092 7.90207H48.7949L54.9438 15.3489H51.1454L45.092 7.90207Z" fill="white"/>
<path d="M30.5271 14.8883C28.8601 14.8883 27.3967 14.5765 26.137 13.953C24.8899 13.3295 23.9164 12.4642 23.2166 11.3571C22.5167 10.2373 22.1667 8.93298 22.1667 7.44415C22.1667 5.95532 22.5167 4.65736 23.2166 3.55029C23.9164 2.43048 24.8899 1.55882 26.137 0.935291C27.3967 0.311764 28.8601 0 30.5271 0C32.1941 0 33.6511 0.311764 34.8981 0.935291C36.1579 1.55882 37.1378 2.43048 37.8376 3.55029C38.5375 4.65736 38.8874 5.95532 38.8874 7.44415C38.8874 8.93298 38.5375 10.2373 37.8376 11.3571C37.1378 12.4642 36.1579 13.3295 34.8981 13.953C33.6511 14.5765 32.1941 14.8883 30.5271 14.8883ZM30.5271 12.0061C31.5706 12.0061 32.4677 11.8216 33.2184 11.4525C33.9819 11.0835 34.5673 10.5554 34.9745 9.86827C35.3944 9.18112 35.6044 8.37307 35.6044 7.44415C35.6044 6.51522 35.3944 5.70718 34.9745 5.02003C34.5673 4.33288 33.9819 3.80479 33.2184 3.43576C32.4677 3.06673 31.5706 2.88222 30.5271 2.88222C29.4964 2.88222 28.5993 3.06673 27.8358 3.43576C27.0723 3.80479 26.4805 4.33288 26.0606 5.02003C25.6534 5.70718 25.4498 6.51522 25.4498 7.44415C25.4498 8.37307 25.6534 9.18112 26.0606 9.86827C26.4805 10.5554 27.0723 11.0835 27.8358 11.4525C28.5993 11.8216 29.4964 12.0061 30.5271 12.0061Z" fill="white"/>
<path d="M19.8938 8.39853C19.8811 9.26383 19.7093 10.091 19.3785 10.8799C19.0604 11.6561 18.6023 12.3496 18.0042 12.9605C17.4061 13.5585 16.6681 14.0294 15.79 14.3729C14.912 14.7165 13.894 14.8883 12.736 14.8883C11.6162 14.8883 10.5664 14.7229 9.58657 14.392C8.61946 14.0484 7.76689 13.5585 7.02883 12.9223C6.30351 12.286 5.73724 11.5098 5.33004 10.5936C4.92284 9.66467 4.71924 8.61485 4.71924 7.44415C4.71924 6.27344 4.92284 5.22999 5.33004 4.31379C5.74997 3.38486 6.32896 2.60227 7.06701 1.96602C7.80506 1.32977 8.67036 0.846215 9.66292 0.515364C10.6555 0.171788 11.7371 0 12.9078 0C14.4348 0 15.7582 0.241776 16.878 0.725327C17.9978 1.19615 18.9013 1.85149 19.5884 2.69135C20.2883 3.5312 20.721 4.49194 20.8864 5.57357H17.6224C17.4952 4.98821 17.2152 4.48558 16.7826 4.06565C16.3626 3.64572 15.8218 3.32123 15.1601 3.09218C14.5112 2.86313 13.7604 2.74861 12.9078 2.74861C11.9025 2.74861 11.0309 2.93312 10.2928 3.30215C9.56748 3.65845 9.00121 4.18654 8.59401 4.88642C8.19954 5.58629 8.0023 6.43887 8.0023 7.44415C8.0023 8.44943 8.21226 9.30836 8.63219 10.021C9.05211 10.7336 9.65019 11.2807 10.4264 11.6625C11.2026 12.0315 12.1188 12.216 13.175 12.216C14.2058 12.216 15.1092 12.057 15.8855 11.7388C16.6617 11.408 17.2725 10.9499 17.7179 10.3645C18.176 9.76647 18.4368 9.06023 18.5005 8.24583L19.8938 8.39853ZM13.614 9.71557V7.3678H21.0391V13.3568L18.7104 15.6604L18.2714 8.79936L18.9395 9.71557H13.614Z" fill="white"/>
<path d="M0 3.51952L3.24488 0.286133V15.9093H0V3.51952Z" fill="white"/>
</svg>
